<?xml version="1.0" standalone="no"?>
<!DOCTYPE svg PUBLIC "-//W3C//DTD SVG 20010904//EN"
 "http://www.w3.org/TR/2001/REC-SVG-20010904/DTD/svg10.dtd">
<svg version="1.0" xmlns="http://www.w3.org/2000/svg"
 width="572.000000pt" height="436.000000pt" viewBox="0 0 572.000000 436.000000"
 preserveAspectRatio="xMidYMid meet">

<g transform="translate(0.000000,436.000000) scale(0.100000,-0.100000)"
fill="#000000" stroke="none">
<path d="M2995 3509 c-57 -18 -64 -18 -145 -3 -110 21 -150 11 -222 -55 -29
-26 -69 -53 -88 -60 -43 -14 -87 -56 -105 -98 -8 -18 -21 -33 -29 -33 -9 0
-25 -20 -37 -45 -27 -58 -23 -88 30 -200 l40 -86 -39 -38 c-39 -37 -40 -39
-40 -109 0 -61 3 -74 26 -101 14 -17 36 -31 47 -31 30 0 39 -8 69 -61 30 -50
112 -119 174 -145 21 -9 48 -24 59 -34 45 -40 105 -32 105 15 0 33 -32 48 -86
40 -76 -11 -175 49 -236 144 -35 56 -38 118 -7 160 30 41 36 85 26 191 -9 102
-1 145 30 157 9 4 51 -5 92 -20 48 -16 105 -27 156 -30 53 -2 95 -11 126 -25
45 -21 49 -21 99 -6 28 8 67 14 87 12 34 -3 37 -6 54 -55 9 -29 25 -84 35
-122 9 -39 21 -68 25 -65 5 3 9 -31 9 -75 l0 -81 39 0 c32 0 44 6 65 31 22 26
26 40 26 98 0 75 -20 114 -66 131 -22 9 -24 15 -24 81 0 56 4 76 20 96 27 34
27 102 0 136 -16 20 -18 30 -10 52 19 49 12 139 -13 176 -50 76 -167 99 -292
58z"/>
<path d="M3960 2971 c-39 -12 -85 -38 -101 -57 -8 -10 6 -4 31 12 l45 29 450
3 c502 3 500 3 576 -66 58 -51 69 -101 69 -302 0 -203 -11 -251 -71 -304 -42
-39 -72 -54 -129 -66 -30 -7 -31 -8 -9 -9 65 -3 153 56 192 128 27 48 27 51
27 249 0 229 -9 263 -81 326 -77 65 -85 66 -553 65 -232 0 -432 -4 -446 -8z"/>
<path d="M2690 2900 c-41 -7 -60 -17 -60 -31 0 -9 22 -8 103 7 15 3 27 9 27
14 0 12 -31 17 -70 10z"/>
<path d="M2975 2901 c-8 -14 3 -18 73 -25 65 -7 80 2 37 22 -31 14 -101 16
-110 3z"/>
<path d="M3819 2873 c-13 -16 -12 -17 4 -4 16 13 21 21 13 21 -2 0 -10 -8 -17
-17z"/>
<path d="M3786 2815 c-3 -9 -6 -22 -5 -28 0 -7 5 -1 10 12 5 13 8 26 5 28 -2
2 -6 -3 -10 -12z"/>
<path d="M2684 2806 c-10 -26 0 -51 21 -51 16 0 20 7 20 30 0 33 -30 49 -41
21z"/>
<path d="M3011 2806 c-19 -23 -4 -58 22 -54 17 2 22 10 22 33 0 34 -24 45 -44
21z"/>
<path d="M3772 2597 c-3 -215 5 -245 76 -316 l54 -54 -7 -104 -7 -104 73 39
c41 21 119 63 174 93 l100 54 175 6 175 5 -171 2 -171 2 -99 -51 c-54 -28
-127 -66 -161 -85 -34 -19 -66 -34 -72 -34 -8 0 -9 30 -5 98 l6 97 -40 28
c-24 16 -50 46 -64 75 -21 42 -24 65 -29 232 l-5 185 -2 -168z"/>
<path d="M4158 2713 c84 -2 219 -2 300 0 81 1 12 3 -153 3 -165 0 -231 -2
-147 -3z"/>
<path d="M4010 2590 c0 -7 129 -10 385 -10 238 1 385 5 385 10 0 6 -147 10
-385 10 -255 0 -385 -3 -385 -10z"/>
<path d="M1511 2531 c-9 -6 -10 -11 -2 -15 6 -4 11 -2 11 3 0 15 424 15 451 1
17 -10 19 -22 19 -125 0 -74 4 -115 11 -115 7 0 9 39 6 116 -3 100 -6 119 -22
130 -15 11 -68 14 -239 14 -122 0 -227 -4 -235 -9z"/>
<path d="M1565 2485 c22 -18 86 -53 70 -38 -5 6 -28 20 -50 32 -22 13 -31 15
-20 6z"/>
<path d="M1903 2479 c-35 -22 -46 -37 -15 -20 22 13 58 40 52 41 -3 0 -20 -10
-37 -21z"/>
<path d="M4197 2463 c105 -2 281 -2 390 0 109 1 23 2 -192 2 -214 0 -304 -1
-198 -2z"/>
<path d="M1814 2424 c-18 -14 -18 -15 4 -4 12 6 22 13 22 15 0 8 -5 6 -26 -11z"/>
<path d="M1710 2396 c5 -5 20 -8 35 -8 15 0 30 3 35 8 5 5 -10 9 -35 9 -25 0
-40 -4 -35 -9z"/>
<path d="M1979 2233 c-13 -16 -12 -17 4 -4 9 7 17 15 17 17 0 8 -8 3 -21 -13z"/>
<path d="M1693 2223 c9 -2 25 -2 35 0 9 3 1 5 -18 5 -19 0 -27 -2 -17 -5z"/>
<path d="M1793 2223 c26 -2 67 -2 90 0 23 2 2 3 -48 3 -49 0 -68 -1 -42 -3z"/>
<path d="M2530 2168 c-155 -10 -282 -33 -337 -59 -48 -23 -112 -94 -166 -184
-60 -101 -172 -393 -208 -540 -27 -115 -36 -268 -19 -343 21 -96 93 -177 178
-201 l31 -9 -5 156 c-24 772 -24 772 10 794 6 4 388 8 848 8 l837 0 20 -26
c19 -24 20 -36 15 -132 -9 -197 -23 -785 -19 -793 11 -17 84 19 132 66 59 59
73 95 80 213 9 144 -20 281 -117 542 -122 329 -211 450 -350 475 -88 16 -244
33 -338 39 -100 5 -103 5 -112 -18 -22 -58 -114 -98 -189 -81 -41 9 -87 48
-95 80 -7 28 5 27 -196 13z"/>
<path d="M1465 1745 c-44 -41 -85 -74 -91 -75 -6 0 -19 9 -29 20 -10 11 -23
20 -28 20 -6 0 2 -13 18 -30 16 -16 34 -30 39 -30 14 1 182 157 176 164 -3 3
-41 -28 -85 -69z"/>
<path d="M4090 1400 c0 -19 -7 -33 -20 -40 -47 -25 -14 -30 210 -30 190 0 230
2 230 14 0 8 -6 16 -14 19 -7 3 -16 19 -19 36 l-6 31 -191 0 -190 0 0 -30z"/>
</g>
</svg>
