<?xml version="1.0" encoding="UTF-8"?> <svg xmlns="http://www.w3.org/2000/svg" version="1.2" viewBox="0 0 60 61" width="60" height="61"><title>Consult-Talk</title><style> tspan { white-space:pre } .shp0 { fill: #00bfff } </style><g id="Consult-Talk"><path id="Layer" class="shp0" d="M14 24L16 24L16 26L14 26L14 24Z"></path><path id="Layer" class="shp0" d="M24 24L26 24L26 26L24 26L24 24Z"></path><path id="Layer" fill-rule="evenodd" class="shp0" d="M59.14 35.01C59.26 35.03 59.37 35.06 59.48 35.12C59.58 35.18 59.68 35.25 59.76 35.34C59.83 35.44 59.9 35.54 59.94 35.65C59.98 35.76 60 35.88 60 36L60 42C60 42.12 59.98 42.24 59.94 42.35C59.9 42.46 59.83 42.56 59.76 42.65C59.68 42.74 59.58 42.82 59.48 42.88C59.37 42.93 59.26 42.97 59.14 42.99L55.24 43.55C55.19 43.68 55.14 43.82 55.09 43.95C55.04 44.09 54.99 44.22 54.93 44.36C54.88 44.49 54.82 44.62 54.76 44.75C54.7 44.89 54.64 45.02 54.58 45.15L56.94 48.3C57.01 48.39 57.07 48.5 57.1 48.62C57.14 48.73 57.15 48.85 57.14 48.97C57.13 49.09 57.1 49.21 57.05 49.31C57 49.42 56.93 49.52 56.85 49.61L52.61 53.85C52.52 53.93 52.42 54 52.32 54.05C52.21 54.1 52.09 54.13 51.97 54.14C51.85 54.15 51.73 54.13 51.62 54.1C51.5 54.07 51.4 54.01 51.3 53.94L48.15 51.58C48.02 51.64 47.89 51.7 47.76 51.76C47.62 51.82 47.49 51.88 47.36 51.93C47.22 51.99 47.09 52.04 46.96 52.09C46.82 52.14 46.68 52.19 46.55 52.23L45.99 56.14C45.97 56.26 45.94 56.37 45.88 56.48C45.82 56.58 45.75 56.68 45.66 56.76C45.56 56.83 45.46 56.9 45.35 56.94C45.24 56.98 45.12 57 45 57L40 57L40 60C40 60.13 39.97 60.26 39.92 60.38C39.87 60.5 39.8 60.61 39.71 60.71C39.61 60.8 39.5 60.87 39.38 60.92C39.26 60.97 39.13 61 39 61L1 61C0.87 61 0.74 60.97 0.62 60.92C0.5 60.87 0.39 60.8 0.29 60.71C0.2 60.61 0.13 60.5 0.08 60.38C0.03 60.26 0 60.13 0 60L0 50.77C0 49.68 0.16 48.59 0.48 47.54C0.8 46.5 1.27 45.5 1.88 44.6C2.5 43.69 3.24 42.88 4.09 42.2C4.95 41.51 5.9 40.96 6.91 40.56L15 37.32L15 35.79C14.25 35.4 13.55 34.94 12.91 34.39C12.27 33.85 11.69 33.24 11.19 32.56C10.69 31.89 10.26 31.16 9.93 30.39C9.59 29.62 9.34 28.81 9.19 27.99C9.13 27.99 9.06 28 9 28L7 28C6.61 28 6.22 27.92 5.85 27.77C5.49 27.62 5.16 27.4 4.88 27.12C4.6 26.84 4.38 26.51 4.23 26.15C4.08 25.78 4 25.39 4 25L4 22C4 21.69 4.05 21.39 4.14 21.09C4.24 20.8 4.38 20.53 4.55 20.28C4.73 20.02 4.95 19.8 5.19 19.62C5.44 19.43 5.71 19.29 6 19.18L6 18C6 14.29 7.47 10.73 10.1 8.1C12.73 5.47 16.29 4 20 4C23.71 4 27.27 5.47 29.9 8.1C32.53 10.73 34 14.29 34 18L34 19.18C34.29 19.29 34.56 19.43 34.81 19.62C35.05 19.8 35.27 20.02 35.45 20.28C35.62 20.53 35.76 20.8 35.86 21.09C35.95 21.39 36 21.69 36 22L36 25C36 25.31 35.95 25.61 35.86 25.91C35.76 26.2 35.62 26.47 35.45 26.72C35.27 26.98 35.05 27.2 34.81 27.38C34.56 27.57 34.29 27.71 34 27.82L34 30C34 30.39 33.92 30.78 33.77 31.15C33.62 31.51 33.4 31.84 33.12 32.12C32.84 32.4 32.51 32.62 32.15 32.77C31.78 32.92 31.39 33 31 33L28.48 33C28.24 33.29 27.99 33.56 27.72 33.83C27.45 34.09 27.17 34.34 26.88 34.57C26.59 34.8 26.29 35.02 25.97 35.23C25.66 35.43 25.33 35.62 25 35.79L25 37.32L33.08 40.56C33.11 40.57 33.13 40.58 33.16 40.59C32.4 36.58 34.41 32.56 38.06 30.75C41.71 28.93 46.13 29.77 48.86 32.79C51.6 35.82 51.99 40.29 49.83 43.75C47.66 47.2 43.46 48.8 39.55 47.65C39.62 47.9 39.69 48.16 39.75 48.42C39.8 48.67 39.85 48.93 39.89 49.19C39.92 49.46 39.95 49.72 39.97 49.98C39.99 50.24 40 50.51 40 50.77L40 55L44.13 55L44.65 51.33C44.67 51.23 44.69 51.14 44.73 51.05C44.77 50.97 44.83 50.89 44.89 50.81C44.95 50.74 45.02 50.68 45.1 50.63C45.18 50.58 45.27 50.54 45.36 50.51C45.57 50.45 45.78 50.38 45.98 50.31C46.19 50.24 46.39 50.16 46.59 50.08C46.79 50 46.99 49.91 47.19 49.82C47.38 49.73 47.57 49.63 47.76 49.52C47.85 49.48 47.94 49.44 48.03 49.42C48.12 49.4 48.22 49.4 48.32 49.4C48.41 49.41 48.51 49.43 48.59 49.46C48.68 49.5 48.77 49.54 48.84 49.6L51.8 51.83L54.82 48.81L52.6 45.85C52.54 45.77 52.5 45.69 52.46 45.6C52.43 45.51 52.41 45.42 52.4 45.32C52.4 45.23 52.4 45.13 52.42 45.04C52.44 44.94 52.48 44.85 52.52 44.77C52.63 44.58 52.73 44.39 52.82 44.19C52.91 44 53 43.8 53.08 43.6C53.16 43.4 53.24 43.19 53.31 42.99C53.38 42.78 53.45 42.58 53.51 42.37C53.54 42.28 53.58 42.19 53.63 42.11C53.68 42.03 53.74 41.96 53.81 41.89C53.89 41.83 53.97 41.78 54.05 41.74C54.14 41.7 54.23 41.67 54.33 41.66L58 41.14L58 36.87L54.33 36.35C54.23 36.33 54.14 36.31 54.05 36.27C53.97 36.23 53.89 36.17 53.81 36.11C53.74 36.05 53.68 35.98 53.63 35.9C53.58 35.82 53.54 35.73 53.51 35.64C53.45 35.43 53.38 35.22 53.31 35.02C53.24 34.81 53.16 34.61 53.08 34.41C53 34.21 52.91 34.01 52.82 33.81C52.73 33.62 52.63 33.43 52.52 33.24C52.48 33.15 52.44 33.06 52.42 32.97C52.4 32.88 52.4 32.78 52.4 32.68C52.41 32.59 52.43 32.49 52.46 32.41C52.5 32.32 52.54 32.23 52.6 32.15L54.82 29.19L51.81 26.18L48.85 28.4C48.77 28.46 48.69 28.5 48.6 28.53C48.51 28.57 48.41 28.59 48.32 28.6C48.22 28.6 48.13 28.6 48.03 28.58C47.94 28.55 47.85 28.52 47.77 28.47C47.58 28.37 47.38 28.27 47.19 28.18C46.99 28.09 46.79 28 46.59 27.92C46.39 27.83 46.19 27.76 45.99 27.69C45.78 27.61 45.58 27.55 45.37 27.49C45.28 27.46 45.19 27.42 45.11 27.37C45.03 27.32 44.95 27.26 44.89 27.18C44.83 27.11 44.78 27.03 44.74 26.94C44.7 26.86 44.67 26.76 44.66 26.67L44.13 23L39.87 23L39.34 26.67L37.36 26.39L38.01 21.86C38.03 21.74 38.06 21.63 38.12 21.52C38.18 21.42 38.25 21.32 38.34 21.24C38.44 21.17 38.54 21.1 38.65 21.06C38.76 21.02 38.88 21 39 21L42 21L42 14.24C41.53 13.87 41.11 13.44 40.74 12.98C40.37 12.51 40.05 12 39.79 11.46C39.53 10.92 39.33 10.36 39.2 9.78C39.07 9.19 39 8.6 39 8C39 7.25 39.1 6.5 39.31 5.77C39.52 5.05 39.83 4.36 40.23 3.72C40.63 3.08 41.12 2.51 41.69 2.01C42.26 1.51 42.89 1.1 43.57 0.78C43.73 0.71 43.89 0.68 44.06 0.69C44.23 0.7 44.39 0.75 44.53 0.84C44.68 0.93 44.79 1.05 44.87 1.2C44.96 1.35 45 1.51 45 1.68L45 7.28L47 7.95L49 7.28L49 1.68C49 1.51 49.04 1.35 49.12 1.2C49.21 1.05 49.32 0.93 49.46 0.84C49.61 0.75 49.77 0.69 49.94 0.68C50.11 0.67 50.27 0.7 50.43 0.78C51.11 1.09 51.74 1.51 52.31 2.01C52.88 2.5 53.37 3.08 53.77 3.72C54.18 4.35 54.49 5.05 54.69 5.77C54.9 6.5 55 7.25 55 8C55 8.6 54.93 9.19 54.8 9.78C54.67 10.36 54.47 10.92 54.21 11.46C53.95 12 53.63 12.51 53.26 12.98C52.89 13.44 52.47 13.87 52 14.24L52 23.87C52.06 23.87 52.11 23.88 52.17 23.9C52.22 23.91 52.28 23.93 52.33 23.96C52.38 23.98 52.43 24.01 52.48 24.04C52.52 24.07 52.57 24.11 52.61 24.15L56.85 28.39C56.93 28.48 57 28.58 57.05 28.68C57.1 28.79 57.13 28.91 57.14 29.03C57.15 29.15 57.13 29.27 57.1 29.38C57.07 29.5 57.01 29.6 56.94 29.7L54.58 32.85C54.64 32.98 54.7 33.11 54.76 33.24C54.82 33.38 54.88 33.51 54.93 33.64C54.99 33.78 55.04 33.91 55.09 34.04C55.14 34.18 55.19 34.32 55.23 34.45L59.14 35.01ZM50 25.03L50 13.74C50 13.66 50.01 13.58 50.03 13.5C50.05 13.42 50.08 13.35 50.11 13.28C50.15 13.21 50.2 13.14 50.25 13.08C50.3 13.02 50.36 12.97 50.43 12.92C51.17 12.4 51.79 11.73 52.23 10.94C52.68 10.15 52.94 9.26 52.99 8.36C53.05 7.46 52.9 6.55 52.55 5.71C52.21 4.87 51.68 4.13 51 3.52L51 8C51 8.1 50.98 8.21 50.95 8.31C50.92 8.41 50.87 8.5 50.81 8.58C50.75 8.67 50.68 8.74 50.59 8.81C50.51 8.87 50.41 8.92 50.32 8.95L47.32 9.95C47.27 9.97 47.21 9.98 47.16 9.99C47.11 10 47.05 10 47 10C46.95 10 46.89 10 46.84 9.99C46.79 9.98 46.73 9.97 46.68 9.95L43.68 8.95C43.59 8.92 43.49 8.87 43.41 8.81C43.32 8.74 43.25 8.67 43.19 8.58C43.13 8.5 43.08 8.41 43.05 8.31C43.02 8.21 43 8.1 43 8L43 3.52C42.32 4.13 41.79 4.87 41.45 5.71C41.11 6.55 40.96 7.45 41.01 8.36C41.07 9.26 41.32 10.14 41.77 10.93C42.21 11.72 42.83 12.4 43.57 12.92C43.64 12.96 43.7 13.02 43.75 13.08C43.8 13.14 43.85 13.21 43.89 13.28C43.92 13.35 43.95 13.42 43.97 13.5C43.99 13.58 44 13.66 44 13.74L44 21L45 21C45.12 21 45.24 21.02 45.35 21.06C45.46 21.1 45.56 21.17 45.66 21.24C45.75 21.32 45.82 21.42 45.88 21.52C45.94 21.63 45.97 21.74 45.99 21.86L46 21.93L46 14L47.99 14L47.99 26.36C48.04 26.38 48.09 26.4 48.14 26.42L50 25.03ZM35 39C35 39.26 35.01 39.53 35.05 39.79C35.08 40.06 35.12 40.32 35.18 40.57C35.24 40.83 35.32 41.09 35.41 41.33C35.5 41.58 35.6 41.83 35.72 42.06C35.98 42.26 36.23 42.47 36.47 42.69C36.71 42.91 36.94 43.14 37.16 43.39C37.38 43.63 37.58 43.88 37.78 44.14C37.98 44.4 38.16 44.66 38.33 44.94C41.07 46.64 44.6 46.27 46.92 44.04C49.25 41.82 49.77 38.31 48.2 35.5C46.62 32.7 43.35 31.31 40.24 32.14C37.13 32.96 34.98 35.78 35 39ZM31.38 30.92C31.5 30.87 31.61 30.8 31.71 30.71C31.8 30.61 31.87 30.5 31.92 30.38C31.97 30.26 32 30.13 32 30L32 28L31 28C30.94 28 30.87 27.99 30.81 27.99C30.76 28.25 30.71 28.51 30.64 28.77C30.57 29.02 30.49 29.28 30.41 29.53C30.32 29.78 30.23 30.03 30.12 30.28C30.02 30.52 29.91 30.76 29.79 31L31 31C31.13 31 31.26 30.97 31.38 30.92ZM29 19C29 16.61 28.05 14.32 26.36 12.64C24.68 10.95 22.39 10 20 10C17.61 10 15.32 10.95 13.64 12.64C11.95 14.32 11 16.61 11 19L11 20L16.9 20C17.18 20 17.46 19.97 17.74 19.93C18.02 19.88 18.29 19.81 18.55 19.71C18.82 19.62 19.07 19.51 19.32 19.37C19.57 19.23 19.8 19.08 20.02 18.9L23.37 16.22C23.43 16.18 23.48 16.14 23.54 16.11C23.6 16.08 23.67 16.06 23.73 16.04C23.79 16.02 23.86 16.01 23.93 16C23.99 16 24.06 16 24.13 16.01C24.19 16.02 24.26 16.03 24.32 16.05C24.38 16.07 24.45 16.1 24.5 16.14C24.56 16.17 24.61 16.21 24.66 16.25C24.71 16.3 24.76 16.35 24.8 16.4L26.6 18.8C26.74 18.99 26.9 19.15 27.08 19.3C27.26 19.45 27.45 19.58 27.66 19.68C27.87 19.79 28.09 19.86 28.31 19.92C28.54 19.97 28.77 20 29 20L29 19ZM34 22C34 21.87 33.97 21.74 33.92 21.62C33.87 21.5 33.8 21.39 33.71 21.29C33.61 21.2 33.5 21.13 33.38 21.08C33.26 21.03 33.13 21 33 21L31 21L31 26L33 26C33.13 26 33.26 25.97 33.38 25.92C33.5 25.87 33.61 25.8 33.71 25.71C33.8 25.61 33.87 25.5 33.92 25.38C33.97 25.26 34 25.13 34 25L34 22ZM20 6C18.42 6 16.86 6.31 15.41 6.92C13.95 7.52 12.63 8.4 11.52 9.52C10.4 10.63 9.52 11.95 8.92 13.41C8.31 14.86 8 16.42 8 18L8 19L9 19C9 16.08 10.16 13.28 12.22 11.22C14.28 9.16 17.08 8 20 8C22.92 8 25.72 9.16 27.78 11.22C29.84 13.28 31 16.08 31 19L32 19L32 18C32 16.42 31.69 14.86 31.08 13.41C30.48 11.95 29.6 10.63 28.48 9.52C27.37 8.4 26.05 7.52 24.59 6.92C23.14 6.31 21.58 6 20 6ZM9 26L9 21L7 21C6.87 21 6.74 21.03 6.62 21.08C6.5 21.13 6.39 21.2 6.29 21.29C6.2 21.39 6.13 21.5 6.08 21.62C6.03 21.74 6 21.87 6 22L6 25C6 25.13 6.03 25.26 6.08 25.38C6.13 25.5 6.2 25.61 6.29 25.71C6.39 25.8 6.5 25.87 6.62 25.92C6.74 25.97 6.87 26 7 26L9 26ZM11 26C11 27.7 11.48 29.36 12.38 30.8C13.29 32.24 14.58 33.39 16.11 34.12C17.65 34.85 19.35 35.14 21.04 34.94C22.73 34.74 24.32 34.07 25.64 33L20 33L20 31L27.48 31C27.72 30.63 27.94 30.25 28.13 29.85C28.32 29.45 28.48 29.04 28.61 28.61C28.74 28.19 28.84 27.76 28.9 27.32C28.97 26.88 29 26.44 29 26L29 22C28.61 22 28.23 21.95 27.85 21.86C27.48 21.77 27.11 21.64 26.77 21.47C26.42 21.3 26.09 21.08 25.8 20.84C25.5 20.59 25.23 20.31 25 20L23.82 18.42L21.27 20.47C20.96 20.71 20.64 20.93 20.29 21.12C19.95 21.31 19.59 21.47 19.22 21.6C18.84 21.73 18.46 21.83 18.07 21.9C17.69 21.97 17.29 22 16.9 22L11 22L11 26ZM20 37C19.75 37 19.49 36.99 19.24 36.97C18.99 36.95 18.74 36.93 18.49 36.89C18.23 36.86 17.98 36.81 17.74 36.76C17.49 36.71 17.24 36.64 17 36.57L17 38C17 38.8 17.32 39.56 17.88 40.12C18.44 40.68 19.2 41 20 41C20.8 41 21.56 40.68 22.12 40.12C22.68 39.56 23 38.8 23 38L23 36.57C22.76 36.64 22.51 36.71 22.26 36.76C22.02 36.81 21.77 36.86 21.51 36.89C21.26 36.93 21.01 36.95 20.76 36.97C20.51 36.99 20.25 37 20 37ZM38 50.77C38 49.88 37.87 48.99 37.61 48.13C37.35 47.27 36.96 46.46 36.46 45.72C35.96 44.98 35.35 44.32 34.65 43.76C33.95 43.2 33.17 42.74 32.34 42.41L24.78 39.39C24.48 40.43 23.86 41.34 22.99 42C22.13 42.65 21.08 43 20 43C18.92 43 17.87 42.65 17.01 42C16.14 41.34 15.52 40.43 15.22 39.39L7.66 42.41C6.83 42.74 6.05 43.2 5.35 43.76C4.65 44.32 4.04 44.98 3.54 45.72C3.04 46.46 2.65 47.27 2.39 48.13C2.13 48.99 2 49.88 2 50.77L2 59L8 59L8 48L10 48L10 59L30 59L30 48L32 48L32 59L38 59L38 50.77Z"></path><path id="Layer" class="shp0" d="M41 25L43 25L43 27L41 27L41 25Z"></path><path id="Layer" class="shp0" d="M41 51L43 51L43 53L41 53L41 51Z"></path><path id="Layer" class="shp0" d="M49.78 48.19L51.19 46.78L52.61 48.19L51.19 49.61L49.78 48.19Z"></path><path id="Layer" class="shp0" d="M54 38L56 38L56 40L54 40L54 38Z"></path><path id="Layer" class="shp0" d="M49.78 29.81L51.19 28.39L52.61 29.81L51.19 31.22L49.78 29.81Z"></path></g></svg> 