<?xml version="1.0" encoding="UTF-8"?> <svg xmlns="http://www.w3.org/2000/svg" version="1.2" viewBox="0 0 100 72" width="100" height="72"><title>Layer</title><style> tspan { white-space:pre } .shp0 { fill: #00bfff } </style><g id="Layer"><g id="Layer"><path id="Layer" fill-rule="evenodd" class="shp0" d="M33.33 61.88C33.33 67.4 28.85 71.9 23.33 71.9C17.82 71.9 13.33 67.4 13.33 61.88C13.33 56.35 17.82 51.86 23.33 51.86C28.85 51.86 33.33 56.35 33.33 61.88ZM30 61.88C30 58.2 27.01 55.2 23.33 55.2C19.66 55.2 16.67 58.2 16.67 61.88C16.67 65.56 19.66 68.56 23.33 68.56C27.01 68.56 30 65.56 30 61.88Z"></path></g></g><g id="Layer"><g id="Layer"><path id="Layer" fill-rule="evenodd" class="shp0" d="M90 61.88C90 67.4 85.52 71.9 80 71.9C74.48 71.9 70 67.4 70 61.88C70 56.35 74.48 51.86 80 51.86C85.52 51.86 90 56.35 90 61.88ZM86.67 61.88C86.67 58.2 83.68 55.2 80 55.2C76.32 55.2 73.33 58.2 73.33 61.88C73.33 65.56 76.32 68.56 80 68.56C83.68 68.56 86.67 65.56 86.67 61.88Z"></path></g></g><g id="Layer"><g id="Layer"><path id="Layer" class="shp0" d="M99.73 42.61L84.73 19.24C84.43 18.76 83.9 18.47 83.33 18.47L65 18.47C64.08 18.47 63.33 19.22 63.33 20.14L63.33 61.88C63.33 62.8 64.08 63.55 65 63.55L71.67 63.55L71.67 60.21L66.67 60.21L66.67 21.81L82.42 21.81L96.67 44L96.67 60.21L88.33 60.21L88.33 63.55L98.33 63.55C99.25 63.55 100 62.8 100 61.88L100 43.51C100 43.19 99.91 42.88 99.73 42.61Z"></path></g></g><g id="Layer"><g id="Layer"><path id="Layer" class="shp0" d="M73.33 40.17L73.33 28.49L86.67 28.49L86.67 25.15L71.67 25.15C70.75 25.15 70 25.9 70 26.82L70 41.84C70 42.77 70.75 43.51 71.67 43.51L96.67 43.51L96.67 40.17L73.33 40.17L73.33 40.17Z"></path></g></g><g id="Layer"><g id="Layer"><path id="Layer" class="shp0" d="M65 6.78L1.67 6.78C0.75 6.78 0 7.53 0 8.45L0 61.88C0 62.8 0.75 63.55 1.67 63.55L15 63.55L15 60.21L3.33 60.21L3.33 10.12L63.33 10.12L63.33 60.21L31.67 60.21L31.67 63.55L65 63.55C65.92 63.55 66.67 62.8 66.67 61.88L66.67 8.45C66.67 7.53 65.92 6.78 65 6.78Z"></path></g></g><g id="Layer"><g id="Layer"><path id="Layer" class="shp0" d="M1.67 53.53L11.67 53.53L11.67 56.87L1.67 56.87L1.67 53.53Z"></path></g></g><g id="Layer"><g id="Layer"><path id="Layer" class="shp0" d="M35 53.53L63.33 53.53L63.33 56.87L35 56.87L35 53.53Z"></path></g></g><g id="Layer"><g id="Layer"><path id="Layer" class="shp0" d="M91.67 53.53L98.33 53.53L98.33 56.87L91.67 56.87L91.67 53.53Z"></path></g></g><g id="Layer"><g id="Layer"><path id="Layer" class="shp0" d="M6.67 13.46L65 13.46L65 16.8L6.67 16.8L6.67 13.46Z"></path></g></g><g id="Layer"><g id="Layer"><path id="Layer" class="shp0" d="M21.67 60.21L25 60.21L25 63.55L21.67 63.55L21.67 60.21Z"></path></g></g><g id="Layer"><g id="Layer"><path id="Layer" class="shp0" d="M78.33 60.21L81.67 60.21L81.67 63.55L78.33 63.55L78.33 60.21Z"></path></g></g><g id="Layer"><g id="Layer"><path id="Layer" class="shp0" d="M6.67 0.1L30 0.1L30 3.44L6.67 3.44L6.67 0.1Z"></path></g></g><g id="Layer"><g id="Layer"><path id="Layer" class="shp0" d="M0 0.1L3.33 0.1L3.33 3.44L0 3.44L0 0.1Z"></path></g></g></svg> 