<svg xmlns="http://www.w3.org/2000/svg" xmlns:xlink="http://www.w3.org/1999/xlink" version="1.1" style="shape-rendering:geometricPrecision; text-rendering:geometricPrecision; image-rendering:optimizeQuality; fill-rule:evenodd; clip-rule:evenodd" viewBox="149.44 290.4 680.06 399.1">
<g><path style="opacity:0.937" fill="#c5924e" d="M 361.5,290.5 C 401.711,289.029 434.544,303.695 460,334.5C 487.872,376.938 487.205,418.938 458,460.5C 445.023,477.066 428.856,489.399 409.5,497.5C 408.479,496.998 408.312,496.332 409,495.5C 453.584,461.739 467.251,418.072 450,364.5C 432.129,322.795 400.629,298.795 355.5,292.5C 357.631,291.831 359.631,291.165 361.5,290.5 Z"/></g>
<g><path style="opacity:0.934" fill="#c5924e" d="M 439.5,295.5 C 480.374,303.002 509.207,325.668 526,363.5C 541.572,419.138 525.072,462.304 476.5,493C 461.764,501.099 446.097,505.266 429.5,505.5C 479.668,487.53 506.335,451.864 509.5,398.5C 506.183,351.333 483.183,317.833 440.5,298C 439.748,297.329 439.414,296.496 439.5,295.5 Z"/></g>
<g><path style="opacity:0.932" fill="#c5924e" d="M 305.5,315.5 C 357.561,312.123 394.061,334.123 415,381.5C 427.991,421.706 421.491,458.372 395.5,491.5C 395.167,491 394.833,490.5 394.5,490C 418.147,439.241 409.814,394.575 369.5,356C 333.439,327.741 294.106,322.241 251.5,339.5C 250.833,339.167 250.167,338.833 249.5,338.5C 266.28,326.132 284.947,318.465 305.5,315.5 Z"/></g>
<g><path style="opacity:0.933" fill="#c5924e" d="M 271.5,339.5 C 325.804,339.554 361.637,365.221 379,416.5C 382.955,433.279 383.455,450.113 380.5,467C 375.521,416.202 348.521,382.535 299.5,366C 251.23,354.978 211.564,368.645 180.5,407C 179.668,407.688 179.002,407.521 178.5,406.5C 197.535,367.452 228.535,345.119 271.5,339.5 Z"/></g>
<g><path style="opacity:0.929" fill="#c5924e" d="M 239.5,384.5 C 291.558,382.123 329.058,404.123 352,450.5C 354.133,455.732 355.966,461.066 357.5,466.5C 356.726,467.711 355.893,467.711 355,466.5C 331.352,423.231 294.852,403.731 245.5,408C 195.028,417.97 163.028,447.804 149.5,497.5C 148.271,455.456 164.938,422.623 199.5,399C 212.061,391.65 225.394,386.817 239.5,384.5 Z"/></g>
<g><path style="opacity:0.932" fill="#c5924e" d="M 251.5,431.5 C 282.253,430.804 309.253,440.304 332.5,460C 332.167,460.5 331.833,461 331.5,461.5C 299.253,444.558 266.253,443.058 232.5,457C 180.53,484.112 160.03,526.612 171,584.5C 172.116,589.132 173.616,593.632 175.5,598C 175.167,598.5 174.833,599 174.5,599.5C 163.004,583.81 156.504,566.144 155,546.5C 152.18,507.596 165.68,475.763 195.5,451C 212.499,439.391 231.166,432.891 251.5,431.5 Z"/></g>
<g><path style="opacity:0.937" fill="#c5924e" d="M 276.5,470.5 C 286.839,470.334 297.172,470.5 307.5,471C 310.98,471.301 314.313,472.135 317.5,473.5C 281.697,475.352 252.197,489.685 229,516.5C 198.035,563.382 199.368,609.382 233,654.5C 237.333,658.833 241.667,663.167 246,667.5C 246.591,668.483 246.257,669.15 245,669.5C 200.681,645.875 180.681,608.875 185,558.5C 196.064,508.935 226.564,479.602 276.5,470.5 Z"/></g>
<g><path style="opacity:0.93" fill="#c5924e" d="M 319.5,496.5 C 323.226,496.177 326.893,496.511 330.5,497.5C 282.889,512.62 256.889,545.12 252.5,595C 255.008,637.542 275.008,668.709 312.5,688.5C 311.833,688.833 311.167,689.167 310.5,689.5C 266.862,677.699 240.696,649.699 232,605.5C 228.798,561.061 246.631,528.227 285.5,507C 296.475,501.93 307.808,498.43 319.5,496.5 Z"/></g>
<g><path style="opacity:0.865" fill="#fff" d="M 495.5,560.5 C 503.337,559.968 511.003,560.801 518.5,563C 523.128,564.785 523.795,567.618 520.5,571.5C 519.667,571.833 518.833,572.167 518,572.5C 511.889,569.349 505.389,568.183 498.5,569C 491.917,572.19 490.917,576.524 495.5,582C 503.679,584.168 511.679,586.834 519.5,590C 528.516,599.706 528.516,609.372 519.5,619C 506.919,625.032 494.419,624.865 482,618.5C 481.407,614.946 482.407,611.946 485,609.5C 493.017,614.44 501.517,615.606 510.5,613C 517.705,608.558 518.372,603.225 512.5,597C 505.549,594.875 498.549,592.875 491.5,591C 483.84,586.242 481.34,579.408 484,570.5C 486.194,565.171 490.027,561.838 495.5,560.5 Z"/></g>
<g><path style="opacity:0.892" fill="#fff" d="M 338.5,561.5 C 341.5,561.5 344.5,561.5 347.5,561.5C 347.5,581.5 347.5,601.5 347.5,621.5C 344.5,621.5 341.5,621.5 338.5,621.5C 338.5,601.5 338.5,581.5 338.5,561.5 Z"/></g>
<g><path style="opacity:0.884" fill="#fff" d="M 356.5,561.5 C 366.839,561.334 377.172,561.5 387.5,562C 400.379,566.277 404.213,574.777 399,587.5C 396.273,590.731 393.106,593.397 389.5,595.5C 395.375,603.932 400.708,612.599 405.5,621.5C 401.818,621.665 398.152,621.499 394.5,621C 389.303,613.301 384.303,605.467 379.5,597.5C 374.88,596.507 370.214,596.173 365.5,596.5C 365.5,604.833 365.5,613.167 365.5,621.5C 362.5,621.5 359.5,621.5 356.5,621.5C 356.5,601.5 356.5,581.5 356.5,561.5 Z M 365.5,569.5 C 372.574,569.161 379.574,569.661 386.5,571C 391.069,573.541 392.569,577.375 391,582.5C 389.269,584.617 387.102,586.117 384.5,587C 378.175,587.5 371.842,587.666 365.5,587.5C 365.5,581.5 365.5,575.5 365.5,569.5 Z"/></g>
<g><path style="opacity:0.859" fill="#fff" d="M 411.5,561.5 C 421.172,561.334 430.839,561.5 440.5,562C 451.852,565.536 455.685,573.036 452,584.5C 451.215,586.286 450.049,587.786 448.5,589C 454.533,592.049 457.533,597.049 457.5,604C 457.445,611.387 454.112,616.72 447.5,620C 435.576,621.438 423.576,621.938 411.5,621.5C 411.5,601.5 411.5,581.5 411.5,561.5 Z M 420.5,569.5 C 426.176,569.334 431.843,569.501 437.5,570C 442.904,572.083 444.737,575.916 443,581.5C 441.786,583.049 440.286,584.215 438.5,585C 432.509,585.499 426.509,585.666 420.5,585.5C 420.5,580.167 420.5,574.833 420.5,569.5 Z M 420.5,593.5 C 427.563,593.212 434.563,593.712 441.5,595C 448.042,598.292 449.542,603.125 446,609.5C 445.097,610.701 443.931,611.535 442.5,612C 435.254,613.391 427.921,613.891 420.5,613.5C 420.5,606.833 420.5,600.167 420.5,593.5 Z"/></g>
<g><path style="opacity:0.81" fill="#fff" d="M 464.5,561.5 C 467.5,561.5 470.5,561.5 473.5,561.5C 473.5,581.5 473.5,601.5 473.5,621.5C 470.5,621.5 467.5,621.5 464.5,621.5C 464.5,601.5 464.5,581.5 464.5,561.5 Z"/></g>
<g><path style="opacity:0.864" fill="#fff" d="M 557.5,561.5 C 572.5,561.5 587.5,561.5 602.5,561.5C 602.5,564.167 602.5,566.833 602.5,569.5C 596.5,569.5 590.5,569.5 584.5,569.5C 584.5,586.833 584.5,604.167 584.5,621.5C 581.5,621.5 578.5,621.5 575.5,621.5C 575.5,604.167 575.5,586.833 575.5,569.5C 569.5,569.5 563.5,569.5 557.5,569.5C 557.5,566.833 557.5,564.167 557.5,561.5 Z"/></g>
<g><path style="opacity:0.884" fill="#fff" d="M 609.5,561.5 C 619.839,561.334 630.172,561.5 640.5,562C 653.379,566.277 657.213,574.777 652,587.5C 649.273,590.731 646.106,593.397 642.5,595.5C 648.375,603.932 653.708,612.599 658.5,621.5C 654.818,621.665 651.152,621.499 647.5,621C 642.303,613.301 637.303,605.467 632.5,597.5C 627.88,596.507 623.214,596.173 618.5,596.5C 618.5,604.833 618.5,613.167 618.5,621.5C 615.5,621.5 612.5,621.5 609.5,621.5C 609.5,601.5 609.5,581.5 609.5,561.5 Z M 618.5,569.5 C 625.574,569.161 632.574,569.661 639.5,571C 644.069,573.541 645.569,577.375 644,582.5C 642.269,584.617 640.102,586.117 637.5,587C 631.175,587.5 624.842,587.666 618.5,587.5C 618.5,581.5 618.5,575.5 618.5,569.5 Z"/></g>
<g><path style="opacity:0.894" fill="#fff" d="M 685.5,561.5 C 689.437,561.207 693.27,561.54 697,562.5C 705.738,581.97 713.904,601.636 721.5,621.5C 718.102,621.82 714.768,621.487 711.5,620.5C 708.962,614.592 706.295,608.758 703.5,603C 695.167,602.333 686.833,602.333 678.5,603C 675.809,608.734 673.309,614.568 671,620.5C 667.591,621.622 664.091,621.789 660.5,621C 668.975,601.218 677.308,581.385 685.5,561.5 Z M 690.5,572.5 C 693.912,579.539 697.245,586.706 700.5,594C 694.167,594.667 687.833,594.667 681.5,594C 684.99,587.029 687.99,579.863 690.5,572.5 Z"/></g>
<g><path style="opacity:0.875" fill="#fff" d="M 727.5,561.5 C 737.839,561.334 748.172,561.5 758.5,562C 774.632,565.468 782.632,575.468 782.5,592C 782.025,607.973 774.025,617.639 758.5,621C 748.172,621.5 737.839,621.666 727.5,621.5C 727.5,601.5 727.5,581.5 727.5,561.5 Z M 736.5,569.5 C 742.509,569.334 748.509,569.501 754.5,570C 769.143,573.347 774.977,582.514 772,597.5C 769.124,606.53 762.957,611.697 753.5,613C 747.843,613.499 742.176,613.666 736.5,613.5C 736.5,598.833 736.5,584.167 736.5,569.5 Z"/></g>
<g><path style="opacity:0.825" fill="#fff" d="M 788.5,561.5 C 801.5,561.5 814.5,561.5 827.5,561.5C 827.5,564.167 827.5,566.833 827.5,569.5C 817.833,569.5 808.167,569.5 798.5,569.5C 798.5,575.167 798.5,580.833 798.5,586.5C 807.167,586.5 815.833,586.5 824.5,586.5C 824.5,589.167 824.5,591.833 824.5,594.5C 815.833,594.5 807.167,594.5 798.5,594.5C 798.5,600.833 798.5,607.167 798.5,613.5C 808.833,613.5 819.167,613.5 829.5,613.5C 829.5,616.167 829.5,618.833 829.5,621.5C 815.833,621.5 802.167,621.5 788.5,621.5C 788.5,601.5 788.5,581.5 788.5,561.5 Z"/></g>
</svg>