<?xml version="1.0" encoding="UTF-8"?> <svg xmlns="http://www.w3.org/2000/svg" version="1.2" viewBox="0 0 100 98" width="100" height="98"><title>Layer</title><style> tspan { white-space:pre } .shp0 { fill: #00bfff } </style><path id="Layer" fill-rule="evenodd" class="shp0" d="M100 1.66L100 68.1C100 69.02 99.25 69.76 98.33 69.76L78.33 69.76L78.33 66.44L96.67 66.44L96.67 36.54L83.33 36.54L83.33 44.85C83.33 45.76 82.59 46.51 81.67 46.51L68.33 46.51C67.41 46.51 66.67 45.76 66.67 44.85L66.67 34.88C66.67 33.96 67.41 33.22 68.33 33.22L96.67 33.22L96.67 3.32L83.33 3.32L83.33 11.63C83.33 12.54 82.59 13.29 81.67 13.29L68.33 13.29C67.41 13.29 66.67 12.54 66.67 11.63L66.67 3.32L53.33 3.32L53.33 18.27L50 18.27L50 3.32L36.67 3.32L36.67 11.63C36.67 12.54 35.92 13.29 35 13.29L21.67 13.29C20.75 13.29 20 12.54 20 11.63L20 3.32L6.67 3.32L6.67 18.27L3.33 18.27L3.33 1.66C3.33 0.74 4.08 0 5 0L98.33 0C99.25 0 100 0.74 100 1.66ZM33.33 3.32L23.33 3.32L23.33 9.97L33.33 9.97L33.33 3.32ZM80 3.32L70 3.32L70 9.97L80 9.97L80 3.32ZM80 36.54L70 36.54L70 43.19L80 43.19L80 36.54Z"></path><path id="Layer" class="shp0" d="M90 26.58L93.33 26.58L93.33 29.9L90 29.9L90 26.58Z"></path><path id="Layer" class="shp0" d="M83.33 26.58L86.67 26.58L86.67 29.9L83.33 29.9L83.33 26.58Z"></path><path id="Layer" class="shp0" d="M90 59.8L93.33 59.8L93.33 63.12L90 63.12L90 59.8Z"></path><path id="Layer" class="shp0" d="M83.33 59.8L86.67 59.8L86.67 63.12L83.33 63.12L83.33 59.8Z"></path><path id="Layer" fill-rule="evenodd" class="shp0" d="M75 77.38L82.85 85.2L80.49 87.55L72.15 79.24C71.84 78.93 71.67 78.51 71.67 78.07L71.67 63.12C71.66 61.28 70.17 59.8 68.33 59.8L63.33 59.8L63.33 64.09L66.18 66.93L63.82 69.28L56.32 61.8C55.59 61.07 54.41 61.07 53.68 61.8C52.95 62.53 52.95 63.71 53.68 64.44L61.18 71.91C61.83 72.56 61.83 73.61 61.18 74.26C58.15 77.28 58.15 82.18 61.18 85.2L71.18 95.16L68.82 97.51L63.33 92.04L63.33 96.34C63.33 97.26 62.59 98 61.67 98L1.67 98C0.75 98 0 97.26 0 96.34L0 23.25C0 22.34 0.75 21.59 1.67 21.59L61.67 21.59C62.59 21.59 63.33 22.34 63.33 23.25L63.33 56.47L68.33 56.47C72.01 56.48 75 59.45 75 63.12L75 77.38ZM60 60.77L60 24.92L45 24.92L45 28.24L55 28.24C55.92 28.24 56.67 28.98 56.67 29.9L56.67 54.81L53.33 54.81L53.33 31.56L44.92 31.56C44.52 33.49 42.81 34.88 40.83 34.88L22.5 34.88C20.52 34.88 18.82 33.49 18.42 31.56L10 31.56L10 88.03L55 88.03L55 91.36L8.33 91.36C7.41 91.36 6.67 90.61 6.67 89.69L6.67 29.9C6.67 28.98 7.41 28.24 8.33 28.24L18.33 28.24L18.33 24.92L3.33 24.92L3.33 94.68L60 94.68L60 88.72L58.82 87.55C54.95 83.68 54.49 77.58 57.73 73.17L51.32 66.78C51.31 66.77 51.3 66.76 51.29 66.75C49.27 64.72 49.28 61.44 51.32 59.42C53.36 57.4 56.66 57.42 58.68 59.45L60 60.77ZM21.67 30.73C21.67 31.19 22.04 31.56 22.5 31.56L40.83 31.56C41.29 31.56 41.67 31.19 41.67 30.73L41.67 24.92L21.67 24.92L21.67 30.73Z"></path><path id="Layer" class="shp0" d="M18.33 47.48L16.18 45.33L13.82 47.68L17.15 51.01C17.81 51.65 18.86 51.65 19.51 51.01L26.18 44.36L23.82 42.01L18.33 47.48Z"></path><path id="Layer" class="shp0" d="M18.33 60.77L16.18 58.62L13.82 60.97L17.15 64.29C17.81 64.94 18.86 64.94 19.51 64.29L26.18 57.65L23.82 55.3L18.33 60.77Z"></path><path id="Layer" class="shp0" d="M18.33 74.06L16.18 71.91L13.82 74.26L17.15 77.58C17.81 78.23 18.86 78.23 19.51 77.58L26.18 70.94L23.82 68.59L18.33 74.06Z"></path><path id="Layer" class="shp0" d="M30 41.53L48.33 41.53L48.33 44.85L30 44.85L30 41.53Z"></path><path id="Layer" class="shp0" d="M30 48.17L45 48.17L45 51.49L30 51.49L30 48.17Z"></path><path id="Layer" class="shp0" d="M30 54.81L48.33 54.81L48.33 58.14L30 58.14L30 54.81Z"></path><path id="Layer" class="shp0" d="M30 61.46L45 61.46L45 64.78L30 64.78L30 61.46Z"></path><path id="Layer" class="shp0" d="M30 68.1L48.33 68.1L48.33 71.42L30 71.42L30 68.1Z"></path><path id="Layer" class="shp0" d="M30 74.75L45 74.75L45 78.07L30 78.07L30 74.75Z"></path></svg> 