<?xml version="1.0" encoding="UTF-8"?> <svg xmlns="http://www.w3.org/2000/svg" version="1.2" viewBox="0 0 100 104" width="100" height="104"><title>Outline</title><style> tspan { white-space:pre } .shp0 { fill: #00bfff } </style><g id="Outline"><path id="Layer" fill-rule="evenodd" class="shp0" d="M99.62 48.48C99.82 49.13 99.88 49.82 99.81 50.5C99.74 51.18 99.54 51.84 99.22 52.44C98.89 53.04 98.45 53.57 97.92 54C97.4 54.43 96.79 54.75 96.13 54.95L90.79 56.55L91.06 62.34C91.07 62.53 91.04 62.72 90.99 62.9C90.94 63.09 90.85 63.26 90.74 63.42C90.63 63.57 90.49 63.71 90.34 63.82C90.18 63.94 90.01 64.02 89.82 64.08L76.55 68.05L75.56 64.73L87.54 61.14L87.37 57.57L49.68 68.86C49.62 68.88 49.55 68.9 49.49 68.91C49.42 68.92 49.36 68.93 49.29 68.93C49.22 68.93 49.15 68.93 49.09 68.93C49.02 68.93 48.95 68.92 48.89 68.91L41.26 67.57C40.94 67.52 40.65 67.38 40.41 67.16C40.17 66.95 39.99 66.67 39.9 66.36C39.81 66.05 39.8 65.73 39.89 65.42C39.97 65.11 40.14 64.82 40.37 64.6L46.02 59.29C46.06 59.25 46.12 59.21 46.17 59.17C46.22 59.13 46.28 59.09 46.34 59.06C46.4 59.02 46.46 58.99 46.52 58.97C46.58 58.94 46.64 58.92 46.71 58.9L93.16 44.99C93.81 44.79 94.49 44.73 95.17 44.79C95.85 44.86 96.51 45.07 97.11 45.39C97.71 45.72 98.24 46.15 98.67 46.68C99.1 47.21 99.43 47.82 99.62 48.48L99.62 48.48ZM56.99 63.06L55.99 59.73L48.09 62.1L45.27 64.76L49.08 65.42L56.99 63.06ZM87.21 54L87.05 50.43L59.31 58.74L60.3 62.06L87.21 54ZM96.17 50.79C96.33 50.49 96.4 50.15 96.37 49.8C96.34 49.46 96.2 49.14 95.99 48.87C95.77 48.61 95.48 48.41 95.15 48.31C94.83 48.21 94.48 48.21 94.15 48.31L90.47 49.41L90.63 52.98L95.14 51.63C95.25 51.6 95.36 51.55 95.46 51.5C95.56 51.45 95.65 51.38 95.74 51.31C95.83 51.24 95.91 51.16 95.98 51.07C96.05 50.99 96.12 50.89 96.17 50.79Z"></path><path id="Layer" fill-rule="evenodd" class="shp0" d="M64.73 72.93C64.94 73.02 65.13 73.15 65.29 73.31C65.45 73.47 65.58 73.66 65.67 73.87C65.76 74.08 65.8 74.31 65.8 74.53L65.8 102.27C65.8 102.49 65.76 102.72 65.67 102.93C65.58 103.14 65.45 103.33 65.29 103.49C65.13 103.65 64.94 103.78 64.73 103.87C64.52 103.96 64.3 104 64.07 104L1.73 104C1.5 104 1.28 103.96 1.07 103.87C0.86 103.78 0.67 103.65 0.51 103.49C0.35 103.33 0.22 103.14 0.13 102.93C0.04 102.72 0 102.49 0 102.27L0 46.8C0 46.57 0.04 46.35 0.13 46.14C0.22 45.93 0.35 45.74 0.51 45.57C0.67 45.41 0.86 45.29 1.07 45.2C1.28 45.11 1.5 45.07 1.73 45.07L32.9 45.07C33.13 45.07 33.35 45.11 33.56 45.2C33.77 45.29 33.96 45.41 34.12 45.57C34.29 45.74 34.41 45.93 34.5 46.14C34.59 46.35 34.63 46.57 34.63 46.8L34.63 72.8L64.07 72.8C64.3 72.8 64.52 72.84 64.73 72.93ZM62.34 76.27L55.41 76.27L55.41 84.93C55.41 85.16 55.37 85.39 55.28 85.6C55.19 85.81 55.06 86 54.9 86.16C54.74 86.32 54.55 86.45 54.34 86.53C54.13 86.62 53.91 86.67 53.68 86.67L43.29 86.67C43.06 86.67 42.84 86.62 42.63 86.53C42.42 86.45 42.23 86.32 42.07 86.16C41.9 86 41.78 85.81 41.69 85.6C41.6 85.39 41.56 85.16 41.56 84.93L41.56 76.27L34.63 76.27L34.63 100.53L62.34 100.53L62.34 76.27ZM3.46 72.8L31.17 72.8L31.17 48.53L24.24 48.53L24.24 57.2C24.24 57.43 24.2 57.65 24.11 57.86C24.02 58.07 23.9 58.26 23.74 58.43C23.57 58.59 23.38 58.71 23.17 58.8C22.96 58.89 22.74 58.93 22.51 58.93L12.12 58.93C11.89 58.93 11.67 58.89 11.46 58.8C11.25 58.71 11.06 58.59 10.9 58.43C10.74 58.26 10.61 58.07 10.52 57.86C10.43 57.65 10.39 57.43 10.39 57.2L10.39 48.53L3.46 48.53L3.46 72.8ZM13.85 55.47L20.78 55.47L20.78 48.53L13.85 48.53L13.85 55.47ZM3.46 100.53L31.17 100.53L31.17 76.27L24.24 76.27L24.24 84.93C24.24 85.16 24.2 85.39 24.11 85.6C24.02 85.81 23.9 86 23.74 86.16C23.57 86.32 23.38 86.45 23.17 86.53C22.96 86.62 22.74 86.67 22.51 86.67L12.12 86.67C11.89 86.67 11.67 86.62 11.46 86.53C11.25 86.45 11.06 86.32 10.9 86.16C10.74 86 10.61 85.81 10.52 85.6C10.43 85.39 10.39 85.16 10.39 84.93L10.39 76.27L3.46 76.27L3.46 100.53ZM13.85 83.2L20.78 83.2L20.78 76.27L13.85 76.27L13.85 83.2ZM45.02 83.2L51.95 83.2L51.95 76.27L45.02 76.27L45.02 83.2Z"></path><path id="Layer" class="shp0" d="M55.41 93.6L58.87 93.6L58.87 97.07L55.41 97.07L55.41 93.6Z"></path><path id="Layer" class="shp0" d="M24.24 93.6L27.71 93.6L27.71 97.07L24.24 97.07L24.24 93.6Z"></path><path id="Layer" class="shp0" d="M24.24 65.87L27.71 65.87L27.71 69.33L24.24 69.33L24.24 65.87Z"></path><path id="Layer" fill-rule="evenodd" class="shp0" d="M27.71 41.6L24.24 41.6L24.24 13.87C24.24 12.96 24.42 12.06 24.77 11.21C25.12 10.37 25.63 9.61 26.27 8.97C26.92 8.32 27.68 7.81 28.52 7.46C29.36 7.11 30.26 6.93 31.17 6.93L48 6.93L46.8 2.15C46.74 1.9 46.74 1.63 46.79 1.37C46.85 1.12 46.96 0.87 47.12 0.67C47.28 0.46 47.49 0.29 47.73 0.18C47.96 0.06 48.22 0 48.48 0L62.34 0C62.6 0 62.86 0.06 63.1 0.18C63.33 0.29 63.54 0.46 63.7 0.67C63.86 0.87 63.98 1.12 64.03 1.37C64.09 1.63 64.08 1.9 64.02 2.15L62.82 6.93L79.65 6.93C80.56 6.93 81.46 7.11 82.3 7.46C83.14 7.81 83.91 8.32 84.55 8.97C85.19 9.61 85.7 10.37 86.05 11.21C86.4 12.06 86.58 12.96 86.58 13.87L86.58 43.33L83.12 43.33L83.12 13.87C83.12 13.41 83.03 12.96 82.85 12.54C82.68 12.12 82.42 11.74 82.1 11.42C81.78 11.09 81.4 10.84 80.98 10.66C80.56 10.49 80.11 10.4 79.65 10.4L69.26 10.4L69.26 13.87L77.92 13.87C78.15 13.87 78.37 13.91 78.58 14C78.79 14.09 78.99 14.21 79.15 14.37C79.31 14.54 79.43 14.73 79.52 14.94C79.61 15.15 79.65 15.37 79.65 15.6L79.65 45.07L76.19 45.07L76.19 17.33L34.63 17.33L34.63 41.6L31.17 41.6L31.17 15.6C31.17 15.37 31.21 15.15 31.3 14.94C31.39 14.73 31.52 14.54 31.68 14.37C31.84 14.21 32.03 14.09 32.24 14C32.45 13.91 32.67 13.87 32.9 13.87L41.56 13.87L41.56 10.4L31.17 10.4C30.71 10.4 30.26 10.49 29.84 10.66C29.42 10.84 29.04 11.09 28.72 11.42C28.4 11.74 28.14 12.12 27.97 12.54C27.8 12.96 27.71 13.41 27.71 13.87L27.71 41.6ZM45.02 13.87L65.8 13.87L65.8 10.4L60.61 10.4C60.34 10.4 60.08 10.34 59.85 10.22C59.61 10.11 59.4 9.94 59.24 9.73C59.08 9.53 58.97 9.28 58.91 9.03C58.86 8.77 58.86 8.5 58.93 8.25L60.12 3.47L50.7 3.47L51.9 8.25C51.96 8.5 51.96 8.77 51.91 9.03C51.86 9.28 51.74 9.53 51.58 9.73C51.42 9.94 51.21 10.11 50.98 10.22C50.74 10.34 50.48 10.4 50.22 10.4L45.02 10.4L45.02 13.87Z"></path><path id="Layer" class="shp0" d="M83.12 84.93C83.12 85.39 83.03 85.84 82.85 86.26C82.68 86.68 82.42 87.06 82.1 87.38C81.78 87.71 81.4 87.96 80.98 88.14C80.56 88.31 80.11 88.4 79.65 88.4L69.26 88.4L69.26 91.87L79.65 91.87C80.56 91.87 81.46 91.69 82.3 91.34C83.14 90.99 83.91 90.48 84.55 89.83C85.19 89.19 85.7 88.43 86.05 87.59C86.4 86.74 86.58 85.84 86.58 84.93L86.58 69.33L83.12 69.33L83.12 84.93Z"></path><path id="Layer" class="shp0" d="M79.65 83.2L79.65 71.07L76.19 71.07L76.19 81.47L69.26 81.47L69.26 84.93L77.92 84.93C78.15 84.93 78.37 84.89 78.58 84.8C78.79 84.71 78.99 84.59 79.15 84.43C79.31 84.26 79.43 84.07 79.52 83.86C79.61 83.65 79.65 83.43 79.65 83.2Z"></path><path id="Layer" fill-rule="evenodd" class="shp0" d="M48.48 29.47C48.48 29.69 48.44 29.92 48.35 30.13C48.27 30.34 48.14 30.53 47.98 30.69C47.82 30.85 47.63 30.98 47.42 31.07C47.21 31.16 46.98 31.2 46.75 31.2L39.83 31.2C39.6 31.2 39.37 31.16 39.16 31.07C38.95 30.98 38.76 30.85 38.6 30.69C38.44 30.53 38.31 30.34 38.23 30.13C38.14 29.92 38.1 29.69 38.1 29.47L38.1 22.53C38.1 22.31 38.14 22.08 38.23 21.87C38.31 21.66 38.44 21.47 38.6 21.31C38.76 21.15 38.95 21.02 39.16 20.93C39.37 20.84 39.6 20.8 39.83 20.8L46.75 20.8C46.98 20.8 47.21 20.84 47.42 20.93C47.63 21.02 47.82 21.15 47.98 21.31C48.14 21.47 48.27 21.66 48.35 21.87C48.44 22.08 48.48 22.31 48.48 22.53L48.48 29.47ZM45.02 24.27L41.56 24.27L41.56 27.73L45.02 27.73L45.02 24.27Z"></path><path id="Layer" fill-rule="evenodd" class="shp0" d="M47.42 36.53C47.63 36.62 47.82 36.75 47.98 36.91C48.14 37.07 48.27 37.26 48.35 37.47C48.44 37.68 48.48 37.91 48.48 38.13L48.48 45.07C48.48 45.29 48.44 45.52 48.35 45.73C48.27 45.94 48.14 46.13 47.98 46.29C47.82 46.45 47.63 46.58 47.42 46.67C47.21 46.76 46.98 46.8 46.75 46.8L39.83 46.8C39.6 46.8 39.37 46.76 39.16 46.67C38.95 46.58 38.76 46.45 38.6 46.29C38.44 46.13 38.31 45.94 38.23 45.73C38.14 45.52 38.1 45.29 38.1 45.07L38.1 38.13C38.1 37.91 38.14 37.68 38.23 37.47C38.31 37.26 38.44 37.07 38.6 36.91C38.76 36.75 38.95 36.62 39.16 36.53C39.37 36.44 39.6 36.4 39.83 36.4L46.75 36.4C46.98 36.4 47.21 36.44 47.42 36.53ZM45.02 39.87L41.56 39.87L41.56 43.33L45.02 43.33L45.02 39.87Z"></path><path id="Layer" class="shp0" d="M51.95 20.8L55.41 20.8L55.41 24.27L51.95 24.27L51.95 20.8Z"></path><path id="Layer" class="shp0" d="M51.95 27.73L72.73 27.73L72.73 31.2L51.95 31.2L51.95 27.73Z"></path><path id="Layer" class="shp0" d="M58.87 20.8L72.73 20.8L72.73 24.27L58.87 24.27L58.87 20.8Z"></path><path id="Layer" class="shp0" d="M51.95 36.4L55.41 36.4L55.41 39.87L51.95 39.87L51.95 36.4Z"></path><path id="Layer" class="shp0" d="M51.95 43.33L72.73 43.33L72.73 46.8L51.95 46.8L51.95 43.33Z"></path><path id="Layer" class="shp0" d="M58.87 36.4L72.73 36.4L72.73 39.87L58.87 39.87L58.87 36.4Z"></path></g></svg> 